<svg xmlns="http://www.w3.org/2000/svg" width="178.76" height="46.759" viewBox="0 0 178.76 46.759"><defs><style>.a{opacity:0.595;}.b{fill:#fff;}</style></defs><g class="a" transform="translate(-10.353 -78.033)"><path class="b" d="M32.094,122.146c-1.534-2.1-1.754-5.076-1.009-8.624.788-3.59,2.539-7.878,6.83-10.463a13.161,13.161,0,0,1,6.613-1.839c2.781,0,5.834.96,7.3,4.019V78.033H10.353v46.224h24.8A6.477,6.477,0,0,1,32.094,122.146Z" transform="translate(0 0)"/><path class="b" d="M22.675,95.9a4.673,4.673,0,0,0,4.508-3.065h5.909a9.4,9.4,0,0,1-3.107,4.816,10.314,10.314,0,0,1-3.7,1.933h7.893V90.251h-14.8C19.066,91.694,18.169,95.9,22.675,95.9Z" transform="translate(17.648 24.675)"/><path class="b" d="M24.765,87.177c-2.844,0-4.508,2.364-5.212,4.946h8.014C27.784,91.118,28.53,87.177,24.765,87.177Z" transform="translate(18.58 18.467)"/><path class="b" d="M46.135,95.315l-4-1.1c-1.936-.528-3.038-.836-3.038-2.334,0-1.365,1.32-2.2,3.08-2.2,1.012,0,2.992.175,3.168,2.639h5.94c-.175-4.445-3.871-6.556-8.446-6.556-5.764,0-9.726,2.639-9.726,6.951,0,4.532,3.832,5.632,5.632,6.16l4.049,1.1c2.552.7,3.08,1.5,3.08,2.506,0,1.323-1.1,2.642-3.43,2.642-2.73,0-3.608-1.628-3.7-3.035H32.628a6.359,6.359,0,0,0,1.631,4.354c2.023,2.111,4.75,2.727,7.609,2.727,6.909,0,10.206-3.826,10.206-7.655C52.074,98.483,50.184,96.414,46.135,95.315Z" transform="translate(44.987 15.62)"/><path class="b" d="M50.2,83.692l-6.465,2.57V90.4h-4.27v4.312h4.27v12.4c0,1.848,0,5.985,6.553,5.985a20.25,20.25,0,0,0,5.061-.7v-4.27a16.491,16.491,0,0,1-2.2.133c-2.9,0-2.9-1.274-2.95-3.3V94.717H55.48V90.4H50.2Z" transform="translate(58.799 11.429)"/><path class="b" d="M65.332,94.039c0-1.012-.042-3.651-1.54-5.453-2.2-2.555-6.072-2.863-7.917-2.863a11.616,11.616,0,0,0-6.734,1.806,6.215,6.215,0,0,0-2.506,5.236h6.377a3.333,3.333,0,0,1,.486-1.981,2.96,2.96,0,0,1,2.461-1.232,3.01,3.01,0,0,1,2.9,1.848,8.631,8.631,0,0,1,.308,2.947c-2.156,0-6.072,0-8.8,1.232a7.39,7.39,0,0,0-4.708,6.906A6.886,6.886,0,0,0,47.6,107.37c.879.833,2.331,1.757,5.544,1.757a7.4,7.4,0,0,0,6.643-3.563,17.765,17.765,0,0,0,.22,3.038H65.9a26.884,26.884,0,0,1-.528-5.632Zm-7.392,9.59a3.692,3.692,0,0,1-2.772,1.277A3.064,3.064,0,0,1,52,101.739c0-2.639,2.992-3.962,7.172-3.608C59.172,100.507,59.084,102.222,57.94,103.629Z" transform="translate(71.316 15.531)"/><rect class="b" width="6.513" height="22.324" transform="translate(141.897 101.809)"/><rect class="b" width="6.95" height="5.631" transform="translate(141.679 92.412)"/><path class="b" d="M64.112,90.222l-.13-4.267H57.867c.13,1.274.308,4.487.308,5.544v16.762h6.51V97.306c0-2.772.4-6.16,7-5.544V85.91C66.4,85.647,64.948,88.332,64.112,90.222Z" transform="translate(95.959 15.872)"/><path class="b" d="M76.621,95.315l-4-1.1c-1.936-.528-3.035-.836-3.035-2.334,0-1.365,1.317-2.2,3.08-2.2,1.009,0,2.989.175,3.165,2.639h5.943c-.178-4.445-3.874-6.556-8.449-6.556-5.761,0-9.723,2.639-9.723,6.951,0,4.532,3.829,5.632,5.632,6.16l4.046,1.1c2.552.7,3.08,1.5,3.08,2.506,0,1.323-1.1,2.642-3.43,2.642-2.73,0-3.608-1.628-3.7-3.035H63.114a6.339,6.339,0,0,0,1.628,4.354c2.023,2.111,4.75,2.727,7.612,2.727,6.906,0,10.2-3.826,10.2-7.655C82.557,98.483,80.667,96.414,76.621,95.315Z" transform="translate(106.556 15.62)"/><path class="b" d="M38.219,82.805a13.161,13.161,0,0,0-6.613,1.839c-4.291,2.582-6.042,6.873-6.83,10.463-.746,3.545-.522,6.522,1.009,8.624,1.836,2.407,5.342,2.76,7.223,2.76a13.012,13.012,0,0,0,8.316-2.585,9.432,9.432,0,0,0,3.11-4.816H38.521a4.673,4.673,0,0,1-4.508,3.065c-4.505,0-3.605-4.2-3.3-5.647H45.554c.48-1.839,1.289-5.342.459-8.361C44.872,84.031,41.369,82.805,38.219,82.805Zm1.619,9.37H31.824c.7-2.585,2.367-4.949,5.212-4.949C40.8,87.226,40.055,91.166,39.838,92.175Z" transform="translate(28.295 9.638)"/></g></svg>